<?xml version="1.0" encoding="UTF-8" standalone="no"?>
<svg
   version="1.1"
   id="Layer_1"
   x="0px"
   y="0px"
   width="388.99792"
   viewBox="0 0 388.99793 387.28742"
   enable-background="new 0 0 1024 1024"
   sodipodi:docname="logo.svg"
   height="387.28741"
   inkscape:version="1.4.2 (f4327f4, 2025-05-13)"
   xmlns:inkscape="http://www.inkscape.org/namespaces/inkscape"
   xmlns:sodipodi="http://sodipodi.sourceforge.net/DTD/sodipodi-0.dtd"
   xmlns="http://www.w3.org/2000/svg"
   xmlns:svg="http://www.w3.org/2000/svg"
   xmlns:bx="https://boxy-svg.com">
  <sodipodi:namedview
     id="namedview1"
     pagecolor="#505050"
     bordercolor="#eeeeee"
     borderopacity="1"
     inkscape:showpageshadow="0"
     inkscape:pageopacity="0"
     inkscape:pagecheckerboard="0"
     inkscape:deskcolor="#505050"
     inkscape:zoom="1.421875"
     inkscape:cx="175.47253"
     inkscape:cy="355.86813"
     inkscape:window-width="2880"
     inkscape:window-height="1760"
     inkscape:window-x="-12"
     inkscape:window-y="-12"
     inkscape:window-maximized="1"
     inkscape:current-layer="Layer_1" />
  <path
     fill="#000000"
     opacity="1"
     stroke="none"
     d="m 228.26682,385.64096 c -17.864,2.306 -35.397,1.71 -52.836,1.066 -21.682,-0.801 -42.161,-6.927 -61.621,-16.715 -23.570996,-11.855 -45.210996,-26.32 -63.180996,-45.756 -26.611998,-28.78 -43.1449982,-62.496 -48.4689982,-101.492 -5.075,-37.175 -1.50800003,-73.242 13.9170002,-107.783 16.177,-36.227 41.808998,-64.051 74.833998,-85.681 19.703996,-12.905 41.035996,-21.391 64.017996,-25.48 73.405,-13.059 135.801,7.488 186.429,62.462 24.83,26.961 39.956,58.983 45.182,95.077 7.783,53.766 -2.651,103.781 -35.095,148.097 -18,24.586 -41.606,42.814 -68.275,57.407 -17.164,9.392 -35.308,15.397 -54.903,18.798 m 118.602,-279.938 c -16.007,-26.279 -36.883,-47.501 -64.962,-63.424 0,5.771 -0.132,10.055 0.023,14.328 0.668,18.476 -4.512,35.441 -12.941,51.649 -9.552,18.369 -24.02,32.554 -38.834,46.531 -7.199,6.792 -14.791,13.242 -21.955,21.86 1.582,1.058 2.967,1.758 4.076,2.761 13.589,12.296 26.783,25.035 38.57,39.061 19.676,23.412 31.084,50.173 31.049,81.217 -0.015,12.826 -0.034,25.651 0.035,38.477 0.01,2.01 -0.768,4.442 2.149,5.836 14.361,-8.059 27.521,-18.055 38.797,-30.077 38.029,-40.545 52.085,-89.146 46.002,-143.784 -2.525,-22.689 -9.958,-44.051 -22.009,-64.435 m -327.967994,89.284 c 0.023,41.183 12.904,77.9 39.308998,109.457 13.132,15.696 28.838,28.698 46.665996,38.977 1.95,-2.435 1.261,-4.507 1.331,-6.425 0.555,-15.292 -0.71,-30.595 0.874,-45.9 2.445,-23.62 11.073,-44.85 24.664,-63.984 12.591,-17.728 28.502,-32.531 44.483,-47.146 3.378,-3.09 3.184,-4.855 -0.034,-7.851 -11.576,-10.779 -23.193,-21.542 -34.256,-32.839 -24.033,-24.544 -36.781,-53.811 -35.79,-88.574 0.066,-2.333 0.911,-4.996 -1.239,-7.014 -42.490996,23.593 -87.666994,78.664 -86.007994,151.299 M 241.70582,25.97896 c -12.941,-3.887 -26.199,-6.302 -39.648,-6.937 -22.349,-1.057 -44.134,2.629 -65.118,10.242 -14.681,5.327 -11.695,2.246 -12.041,16.872 -0.027,1.165 0.067,2.337 -0.014,3.497 -1.648,23.588 6.467,44.054 19.997,62.815 13.263,18.393 31.085,32.321 46.977,48.141 2.319,2.309 3.681,0.869 5.349,-0.733 6.963,-6.688 13.947,-13.356 20.987,-19.963 11.81,-11.085 22.995,-22.692 31.253,-36.785 1.035,-1.765 2.622,-3.415 1.884,-6.22 -2.409,0 -4.719,0 -7.03,0 -27.979,-0.004 -55.958,-0.007 -83.937,-0.015 -1.666,-0.001 -3.355,0.129 -4.991,-0.1 -4.397,-0.616 -7.409,-2.954 -8.066,-7.528 -0.665,-4.632 0.947,-8.116 5.506,-10.022 2.397,-1.003 4.848,-1.02 7.348,-1.02 31.476,0.009 62.953,-0.092 94.428,0.112 4.952,0.032 7.07,-1.35 7.781,-6.438 1.627,-11.631 0.392,-23.267 0.812,-34.888 0.099,-2.727 -1.875,-3.698 -3.85,-4.64 -5.423,-2.589 -11.16,-4.327 -17.627,-6.39 m -43.202,272.787 c 19.985,-0.029 39.97,-0.159 59.953,10e-4 3.778,0.031 5.007,-1.053 4.796,-4.784 -0.666,-11.775 -3.886,-22.857 -8.394,-33.666 -7.409,-17.762 -19.908,-31.769 -33.25,-45.12 -8.787,-8.793 -17.854,-17.306 -26.998,-26.139 -19.864,19.59 -41.563,36.787 -55.876,62.135 3.041,0 4.849,0.001 6.657,0 13.99,-0.002 27.979,-0.005 41.969,-0.008 11.991,-0.002 23.982,-0.061 35.973,0.016 6.353,0.04 10.114,3.129 10.523,8.32 0.517,6.557 -3.141,10.354 -10.33,10.367 -29.144,0.055 -58.29,0.141 -87.433,-0.073 -4.891,-0.036 -7.343,1.737 -8.713,6.191 -1.777,5.783 -2.525,11.621 -2.577,17.67 -0.035,4.078 1.21,5.636 5.417,5.502 9.979,-0.317 19.969,-0.314 29.956,-0.347 12.473,-0.043 24.947,0.008 38.327,-0.065 m -15.394,70.692 c 6.498,0.004 12.996,-0.002 19.494,0.012 19.431,0.045 37.82,-4.857 55.82,-11.674 3.307,-1.253 4.993,-3.083 4.872,-6.989 -0.29,-9.322 -0.243,-18.663 -0.018,-27.988 0.094,-3.902 -1.231,-5.372 -5.14,-5.291 -8.494,0.176 -16.995,0.056 -25.492,0.057 -33.991,0.003 -67.982,0.005 -101.973,0.012 -2.841,0 -5.846,-0.493 -5.788,4.011 0.129,9.996 0.073,19.995 0.02,29.992 -0.012,2.153 0.958,3.395 2.855,4.18 17.452,7.229 35.327,12.76 55.35,13.678 z"
     id="path1"
     style="fill:#ff0000" />
  <defs
     id="defs1">
    <rect
       x="-226.46153"
       y="388.92307"
       width="805.97803"
       height="185.67033"
       id="rect2" />
    <style
       bx:fonts="Inter Tight"
       id="style1">@import url(https://fonts.googleapis.com/css2?family=Inter+Tight%3Aital%2Cwght%400%2C100..900%3B1%2C100..900&amp;display=swap);</style>
  </defs>
  <text
     xml:space="preserve"
     id="text2"
     style="font-family:'Inter Tight';-inkscape-font-specification:'Inter Tight';text-align:start;writing-mode:lr-tb;direction:ltr;white-space:pre;shape-inside:url(#rect2);fill:#ff0000;stroke:#ffffff;stroke-width:24.295"
     transform="translate(-60.524436)" />
</svg>
